<?xml version="1.0" standalone="no"?>
<!DOCTYPE svg PUBLIC "-//W3C//DTD SVG 20010904//EN"
 "http://www.w3.org/TR/2001/REC-SVG-20010904/DTD/svg10.dtd">
<svg version="1.0" xmlns="http://www.w3.org/2000/svg"
 width="700.000000pt" height="700.000000pt" viewBox="0 0 700.000000 700.000000"
 preserveAspectRatio="xMidYMid meet">
<metadata>
Created by potrace 1.14, written by Peter Selinger 2001-2017
</metadata>
<g transform="translate(0.000000,700.000000) scale(0.100000,-0.100000)"
fill="#000000" stroke="none">
<path d="M4090 6993 c-41 -7 -146 -62 -175 -91 -34 -34 -82 -94 -85 -107 -2
-5 -10 -26 -19 -45 -14 -31 -16 -128 -16 -875 0 -462 3 -868 8 -903 27 -225
120 -492 236 -682 11 -19 21 -38 21 -42 0 -3 -38 -20 -85 -37 -276 -100 -581
-253 -825 -414 -70 -47 -249 -175 -260 -187 -3 -3 -30 -25 -60 -50 -115 -94
-281 -255 -396 -385 -249 -281 -468 -630 -628 -1000 -10 -22 -21 -49 -26 -60
-28 -61 -119 -330 -155 -455 -34 -120 -100 -411 -109 -481 -3 -19 -7 -56 -11
-84 -3 -27 -8 -57 -10 -65 -3 -8 -7 -44 -11 -80 -3 -36 -9 -96 -13 -134 -4
-38 -9 -157 -10 -265 -1 -108 -4 -198 -6 -200 -13 -12 -272 73 -405 134 -422
190 -684 481 -745 825 -12 69 -13 292 -2 345 3 11 8 41 11 66 18 137 90 347
181 530 60 119 107 202 342 589 278 460 359 752 319 1150 -12 109 -59 286
-104 389 -153 346 -463 560 -837 576 -90 3 -105 2 -139 -18 -79 -45 -97 -148
-39 -218 33 -39 61 -49 148 -54 352 -20 563 -198 650 -550 30 -123 39 -202 37
-333 -1 -89 -6 -130 -28 -241 -14 -68 -94 -267 -143 -355 -33 -60 -147 -254
-176 -300 -92 -147 -225 -376 -273 -468 -76 -147 -164 -367 -188 -473 -54
-234 -63 -307 -59 -500 3 -214 35 -348 126 -528 181 -360 591 -661 1108 -813
114 -34 258 -66 356 -80 28 -3 59 -9 70 -13 39 -11 5198 -13 5237 -1 57 16 93
70 93 136 0 59 -22 97 -73 127 -27 16 -57 18 -266 18 -215 0 -236 2 -237 17 0
9 -2 813 -2 1787 l-2 1770 95 96 c241 241 406 545 461 849 6 36 14 79 17 95 3
17 7 422 9 900 4 951 5 924 -54 1018 -60 95 -169 161 -284 172 -117 11 -215
-28 -320 -127 -31 -29 -102 -96 -159 -148 -57 -52 -112 -104 -122 -114 -18
-19 -19 -19 -125 17 -100 33 -170 52 -233 63 -14 2 -34 6 -45 9 -40 9 -192 19
-275 18 -174 -2 -354 -32 -497 -83 -128 -46 -124 -46 -165 -8 -47 43 -228 211
-287 266 -72 67 -152 102 -241 106 -41 2 -86 1 -100 -1z m103 -293 c12 0 33
-19 182 -159 124 -116 267 -245 286 -259 32 -22 102 -17 165 13 354 163 738
171 1084 23 126 -54 142 -58 187 -46 39 10 54 21 238 193 296 277 286 270 344
216 l31 -29 -1 -819 c0 -853 -2 -899 -45 -1053 -8 -30 -16 -59 -18 -65 -26
-104 -139 -317 -224 -420 -215 -264 -494 -425 -827 -480 -105 -17 -367 -12
-455 10 -36 8 -75 18 -86 20 -39 9 -158 56 -224 89 -148 75 -257 159 -388 299
-163 176 -307 476 -337 702 -4 28 -10 55 -13 60 -12 19 -9 1644 3 1668 12 25
54 49 73 42 8 -3 19 -5 25 -5z m89 -2722 c144 -140 299 -251 448 -319 137 -63
274 -108 377 -124 21 -3 50 -8 63 -12 41 -10 370 -12 430 -2 30 5 70 11 87 14
100 15 261 66 368 114 37 17 68 31 69 31 1 0 1 -759 1 -1687 1 -1133 -3 -1690
-9 -1695 -6 -4 -203 -7 -438 -7 l-428 0 -1 242 c-1 307 -2 330 -34 499 -12 62
-68 215 -115 312 -165 344 -468 654 -805 823 -195 98 -385 151 -575 159 -103
5 -118 3 -147 -15 -80 -50 -96 -153 -34 -219 32 -35 75 -48 190 -56 136 -10
291 -56 431 -126 62 -31 199 -115 210 -129 3 -3 23 -20 45 -36 227 -169 434
-475 506 -745 30 -113 33 -162 34 -445 l0 -260 -1575 -2 c-866 -1 -1588 1
-1604 4 l-28 6 5 241 c6 274 10 318 43 540 17 115 72 372 98 461 1 6 8 30 15
55 71 264 231 635 379 880 69 115 187 290 220 326 9 10 30 37 47 59 77 103
332 363 451 460 48 39 91 75 98 80 20 18 209 150 276 192 157 99 414 230 585
298 82 33 277 104 287 104 4 1 17 -9 30 -21z"/>
<path d="M4710 5532 c-67 -23 -151 -112 -174 -184 -75 -242 172 -460 399 -353
144 69 205 237 139 385 -29 65 -69 107 -137 142 -53 28 -162 33 -227 10z"/>
<path d="M5915 5544 c-208 -54 -294 -299 -162 -467 71 -92 204 -132 315 -96
66 21 137 83 169 146 36 75 39 183 7 253 -26 56 -83 113 -141 141 -43 21 -146
33 -188 23z"/>
</g>
</svg>
